<svg width="199" height="199" viewBox="0 0 199 199" fill="none" xmlns="http://www.w3.org/2000/svg">
<rect x="111.629" y="5.20724" width="79.7342" height="33.8472" rx="16.9236" fill="#161ECA"/>
<rect width="123.521" height="33.5724" rx="16.7862" transform="matrix(0.568884 -0.822418 0.815845 0.57827 101.341 101.586)" fill="#161ECA"/>
<ellipse cx="89.7667" cy="22.1308" rx="16.7185" ry="16.9236" fill="#161ECA"/>
<path d="M80.012 42.1088C88.1581 38.742 97.6268 43.0702 98.061 51.8739C98.364 58.0191 97.7432 64.2165 96.1904 70.2019C93.2641 81.4807 87.1821 91.4123 78.8378 98.5378C70.4934 105.663 60.3266 109.607 49.8307 109.79C39.3349 109.972 29.0634 106.384 20.525 99.5524C11.9866 92.7207 5.63152 83.0055 2.39323 71.8339C-0.845072 60.6623 -0.795853 48.6233 2.53366 37.4853C5.86316 26.3474 12.2974 16.6976 20.8913 9.95356C24.9123 6.79805 29.307 4.35651 33.9203 2.68135C42.5895 -0.466614 50.1151 7.46466 49.9115 16.6855L49.8113 21.2242C49.6613 28.0152 43.4463 33.214 38.1026 37.4075C34.7582 40.032 32.2543 43.7873 30.9586 48.1218C29.6628 52.4562 29.6437 57.1413 30.9039 61.4889C32.1641 65.8364 34.6373 69.6171 37.9601 72.2758C41.2828 74.9344 45.2801 76.3307 49.3647 76.2597C53.4492 76.1886 57.4057 74.6539 60.653 71.8809C63.9003 69.108 66.2672 65.243 67.406 60.8537C69.3239 53.4612 72.4426 45.2372 79.5008 42.32L80.012 42.1088Z" fill="#161ECA"/>
<mask id="path-5-inside-1_11_5814" fill="white">
<path d="M112 170C112 178.284 105.284 185 97 185C88.7157 185 82 178.284 82 170C82 161.716 88.7157 155 97 155C105.284 155 112 161.716 112 170ZM88.1677 170C88.1677 174.878 92.1221 178.832 97 178.832C101.878 178.832 105.832 174.878 105.832 170C105.832 165.122 101.878 161.168 97 161.168C92.1221 161.168 88.1677 165.122 88.1677 170Z"/>
</mask>
<path d="M112 170C112 178.284 105.284 185 97 185C88.7157 185 82 178.284 82 170C82 161.716 88.7157 155 97 155C105.284 155 112 161.716 112 170ZM88.1677 170C88.1677 174.878 92.1221 178.832 97 178.832C101.878 178.832 105.832 174.878 105.832 170C105.832 165.122 101.878 161.168 97 161.168C92.1221 161.168 88.1677 165.122 88.1677 170Z" fill="white" stroke="#3C16CA" stroke-width="2" stroke-linecap="square" mask="url(#path-5-inside-1_11_5814)"/>
<path d="M69.5709 153.48C66.9843 153.48 64.8376 153 63.1309 152.04C61.4243 151.053 60.1043 149.64 59.1709 147.8L64.1709 145.4C64.7309 146.493 65.4909 147.333 66.4509 147.92C67.4109 148.507 68.5309 148.8 69.8109 148.8C71.1443 148.8 72.1443 148.52 72.8109 147.96C73.4776 147.4 73.8109 146.733 73.8109 145.96C73.8109 145.533 73.6509 145.187 73.3309 144.92C73.0376 144.653 72.6376 144.427 72.1309 144.24C71.6509 144.027 71.0776 143.853 70.4109 143.72C69.7443 143.587 69.0509 143.44 68.3309 143.28C67.3176 143.067 66.3176 142.813 65.3309 142.52C64.3709 142.227 63.5043 141.827 62.7309 141.32C61.9576 140.787 61.3309 140.12 60.8509 139.32C60.3709 138.493 60.1309 137.467 60.1309 136.24C60.1309 135.307 60.3443 134.413 60.7709 133.56C61.2243 132.68 61.8509 131.907 62.6509 131.24C63.4509 130.573 64.4109 130.053 65.5309 129.68C66.6776 129.28 67.9443 129.08 69.3309 129.08C71.6776 129.08 73.6243 129.52 75.1709 130.4C76.7443 131.253 77.9843 132.427 78.8909 133.92L74.2909 136.24C73.8109 135.413 73.1443 134.76 72.2909 134.28C71.4376 133.8 70.4509 133.56 69.3309 133.56C68.0509 133.56 67.1043 133.813 66.4909 134.32C65.8776 134.827 65.5709 135.413 65.5709 136.08C65.5709 136.853 66.0243 137.413 66.9309 137.76C67.8376 138.08 69.1709 138.427 70.9309 138.8C71.8909 138.987 72.8509 139.24 73.8109 139.56C74.7976 139.853 75.6909 140.267 76.4909 140.8C77.2909 141.307 77.9309 141.973 78.4109 142.8C78.9176 143.6 79.1709 144.613 79.1709 145.84C79.1709 146.667 78.9843 147.533 78.6109 148.44C78.2376 149.32 77.6509 150.147 76.8509 150.92C76.0776 151.667 75.0909 152.28 73.8909 152.76C72.6909 153.24 71.2509 153.48 69.5709 153.48ZM92.8341 153.48C91.1541 153.48 89.5674 153.173 88.0741 152.56C86.6074 151.92 85.3274 151.053 84.2341 149.96C83.1407 148.84 82.2741 147.547 81.6341 146.08C81.0207 144.587 80.7141 143 80.7141 141.32C80.7141 139.613 81.0207 138.027 81.6341 136.56C82.2741 135.067 83.1407 133.773 84.2341 132.68C85.3274 131.56 86.6074 130.693 88.0741 130.08C89.5674 129.44 91.1541 129.12 92.8341 129.12C94.5141 129.12 96.0874 129.44 97.5541 130.08C99.0207 130.693 100.301 131.56 101.394 132.68C102.514 133.773 103.381 135.067 103.994 136.56C104.634 138.027 104.954 139.613 104.954 141.32C104.954 143 104.634 144.587 103.994 146.08C103.381 147.547 102.514 148.84 101.394 149.96C100.301 151.053 99.0207 151.92 97.5541 152.56C96.0874 153.173 94.5141 153.48 92.8341 153.48ZM92.8341 148.4C93.7941 148.4 94.6874 148.213 95.5141 147.84C96.3407 147.467 97.0607 146.96 97.6741 146.32C98.2874 145.68 98.7674 144.933 99.1141 144.08C99.4607 143.2 99.6341 142.28 99.6341 141.32C99.6341 140.333 99.4607 139.413 99.1141 138.56C98.7674 137.68 98.2874 136.92 97.6741 136.28C97.0607 135.64 96.3407 135.133 95.5141 134.76C94.6874 134.387 93.7941 134.2 92.8341 134.2C91.8741 134.2 90.9674 134.387 90.1141 134.76C89.2874 135.133 88.5674 135.64 87.9541 136.28C87.3674 136.92 86.9007 137.68 86.5541 138.56C86.2074 139.413 86.0341 140.333 86.0341 141.32C86.0341 142.28 86.2074 143.2 86.5541 144.08C86.9007 144.933 87.3674 145.68 87.9541 146.32C88.5674 146.96 89.2874 147.467 90.1141 147.84C90.9674 148.213 91.8741 148.4 92.8341 148.4ZM105.672 129.6H109.632V129.56C109.632 127.88 109.806 126.453 110.152 125.28C110.526 124.08 111.099 123.107 111.872 122.36C112.646 121.613 113.646 121.067 114.872 120.72C116.126 120.373 117.646 120.2 119.432 120.2H119.912V125.2C118.846 125.2 117.992 125.267 117.352 125.4C116.712 125.533 116.219 125.773 115.872 126.12C115.552 126.467 115.339 126.92 115.232 127.48C115.152 128.04 115.112 128.747 115.112 129.6H119.912V134.44H115.112V153H109.632V134.44H105.672V129.6ZM121.533 129.6H125.533V126.04L130.973 122.32V129.6H135.733V134.44H130.973V143.2C130.973 144.213 131.026 145.04 131.133 145.68C131.239 146.293 131.453 146.773 131.773 147.12C132.119 147.44 132.599 147.653 133.213 147.76C133.853 147.867 134.693 147.92 135.733 147.92V153H134.973C133.159 153 131.639 152.84 130.413 152.52C129.213 152.2 128.253 151.667 127.533 150.92C126.813 150.147 126.293 149.147 125.973 147.92C125.679 146.667 125.533 145.107 125.533 143.24V134.44H121.533V129.6ZM71.887 155.8H81.887C83.407 155.8 84.807 156.08 86.087 156.64C87.367 157.173 88.4737 157.907 89.407 158.84C90.3404 159.773 91.0737 160.88 91.607 162.16C92.1404 163.413 92.407 164.76 92.407 166.2C92.407 167.64 92.1404 169 91.607 170.28C91.0737 171.56 90.3404 172.667 89.407 173.6C88.4737 174.533 87.3537 175.28 86.047 175.84C84.767 176.373 83.367 176.64 81.847 176.64H77.327V185H71.887V155.8ZM77.327 160.84V171.6H81.487C82.287 171.6 83.0204 171.467 83.687 171.2C84.3537 170.907 84.927 170.52 85.407 170.04C85.887 169.533 86.2604 168.96 86.527 168.32C86.7937 167.653 86.927 166.947 86.927 166.2C86.927 165.453 86.7937 164.76 86.527 164.12C86.2604 163.453 85.887 162.88 85.407 162.4C84.927 161.92 84.3537 161.547 83.687 161.28C83.0204 160.987 82.287 160.84 81.487 160.84H77.327ZM114.774 185.4C112.134 185.4 109.907 184.907 108.094 183.92C106.281 182.907 104.707 181.653 103.374 180.16L108.334 176.24C109.081 177.52 110.001 178.507 111.094 179.2C112.187 179.867 113.401 180.2 114.734 180.2C116.174 180.2 117.267 179.8 118.014 179C118.787 178.2 119.174 177.293 119.174 176.28C119.174 175.667 119.001 175.147 118.654 174.72C118.307 174.293 117.854 173.933 117.294 173.64C116.734 173.32 116.081 173.04 115.334 172.8C114.614 172.56 113.867 172.32 113.094 172.08C112.107 171.76 111.121 171.413 110.134 171.04C109.147 170.667 108.254 170.173 107.454 169.56C106.681 168.92 106.041 168.147 105.534 167.24C105.054 166.307 104.814 165.147 104.814 163.76C104.814 162.587 105.054 161.493 105.534 160.48C106.014 159.467 106.681 158.587 107.534 157.84C108.414 157.067 109.441 156.467 110.614 156.04C111.814 155.613 113.107 155.4 114.494 155.4C115.667 155.4 116.721 155.507 117.654 155.72C118.614 155.933 119.481 156.227 120.254 156.6C121.054 156.973 121.774 157.427 122.414 157.96C123.081 158.467 123.707 159.027 124.294 159.64L119.814 163.04C118.561 161.173 116.801 160.24 114.534 160.24C113.201 160.24 112.187 160.56 111.494 161.2C110.801 161.84 110.454 162.627 110.454 163.56C110.454 164.147 110.614 164.64 110.934 165.04C111.254 165.44 111.681 165.8 112.214 166.12C112.774 166.413 113.414 166.68 114.134 166.92C114.854 167.16 115.614 167.413 116.414 167.68C117.401 168 118.387 168.373 119.374 168.8C120.387 169.2 121.294 169.733 122.094 170.4C122.921 171.04 123.587 171.84 124.094 172.8C124.601 173.733 124.854 174.907 124.854 176.32C124.854 177.467 124.627 178.587 124.174 179.68C123.721 180.773 123.067 181.747 122.214 182.6C121.361 183.427 120.307 184.107 119.054 184.64C117.801 185.147 116.374 185.4 114.774 185.4Z" fill="#161ECA"/>
</svg>
